<?xml version="1.0" standalone="no"?>
<!DOCTYPE svg PUBLIC "-//W3C//DTD SVG 20010904//EN"
 "http://www.w3.org/TR/2001/REC-SVG-20010904/DTD/svg10.dtd">
<svg version="1.0" xmlns="http://www.w3.org/2000/svg"
 width="1024.000000pt" height="1024.000000pt" viewBox="0 0 1024.000000 1024.000000"
 preserveAspectRatio="xMidYMid meet">
<metadata>
Created by potrace 1.11, written by Peter Selinger 2001-2013
</metadata>
<g transform="translate(0.000000,1024.000000) scale(0.100000,-0.100000)"
fill="#000000" stroke="none">
<path d="M3027 9808 c-65 -14 -125 -63 -151 -124 -8 -17 -17 -58 -21 -90 -3
-32 -8 -61 -10 -64 -1 -3 -6 -25 -9 -50 -3 -25 -8 -54 -10 -65 -2 -12 -8 -48
-12 -80 -4 -33 -9 -62 -9 -65 -1 -3 -5 -27 -9 -55 -4 -27 -11 -72 -16 -100 -5
-27 -12 -70 -15 -95 -3 -25 -10 -70 -15 -100 -5 -30 -12 -73 -15 -95 -4 -22
-8 -51 -10 -64 -2 -13 -7 -45 -11 -70 -4 -25 -8 -55 -10 -66 -9 -50 -15 -83
-19 -115 -2 -19 -6 -44 -9 -56 -2 -12 -7 -45 -11 -75 -4 -30 -8 -56 -10 -59
-2 -3 -6 -34 -10 -70 -4 -36 -9 -68 -11 -71 -2 -4 -6 -26 -8 -50 -3 -24 -7
-53 -10 -64 -4 -23 -11 -65 -41 -260 -8 -55 -17 -109 -19 -120 -2 -11 -7 -42
-10 -70 -4 -27 -9 -57 -11 -65 -2 -8 -6 -35 -9 -60 -4 -25 -8 -56 -10 -70 -3
-14 -7 -43 -11 -65 -3 -22 -12 -78 -20 -125 -8 -47 -17 -105 -20 -130 -6 -40
-39 -257 -50 -320 -7 -42 -54 -342 -60 -385 -3 -22 -8 -51 -11 -65 -3 -14 -8
-41 -10 -60 -3 -31 -7 -56 -18 -125 -2 -11 -7 -40 -10 -65 -4 -25 -13 -83 -21
-130 -7 -47 -16 -103 -19 -125 -5 -45 -23 -157 -31 -194 -2 -14 -9 -59 -15
-101 -6 -42 -12 -85 -14 -96 -4 -20 -15 -89 -22 -139 -2 -16 -7 -43 -10 -60
-4 -16 -8 -43 -10 -60 -1 -16 -12 -84 -23 -150 -11 -66 -23 -140 -26 -165 -3
-25 -8 -57 -11 -72 -2 -15 -16 -101 -30 -190 -32 -209 -33 -218 -39 -248 -2
-14 -7 -45 -10 -70 -3 -25 -8 -52 -10 -60 -2 -8 -6 -35 -9 -60 -3 -25 -7 -54
-10 -65 -2 -11 -6 -41 -10 -66 -4 -25 -9 -57 -11 -70 -2 -13 -14 -85 -25 -159
-12 -74 -23 -146 -25 -160 -3 -14 -7 -43 -10 -65 -11 -73 -35 -220 -39 -240
-2 -11 -7 -42 -10 -70 -4 -27 -9 -57 -11 -65 -2 -8 -6 -37 -10 -65 -3 -27 -10
-72 -15 -100 -8 -47 -33 -203 -45 -290 -7 -53 -24 -155 -29 -181 -2 -12 -7
-45 -11 -75 -4 -30 -13 -90 -21 -134 -21 -122 -24 -114 68 -165 45 -25 98 -54
117 -65 20 -11 72 -40 116 -65 44 -25 89 -50 100 -57 11 -7 27 -15 35 -19 8
-4 44 -24 80 -44 36 -21 86 -49 113 -64 26 -14 67 -37 92 -51 25 -14 66 -37
93 -51 26 -15 112 -63 192 -109 195 -110 234 -132 310 -173 36 -20 98 -55 138
-79 41 -24 75 -43 77 -43 1 0 81 -44 176 -98 96 -54 181 -102 189 -105 8 -4
29 -15 45 -25 17 -10 53 -31 80 -46 282 -156 505 -282 527 -297 15 -11 29 -19
32 -19 3 0 74 -39 158 -86 84 -48 187 -105 228 -127 41 -21 82 -45 90 -51 8
-7 43 -24 77 -39 104 -44 247 -62 343 -44 25 4 56 10 70 13 14 2 36 9 50 16
14 6 36 16 50 22 14 6 79 40 145 77 66 36 147 81 180 99 33 18 94 52 135 75
179 100 253 141 350 194 30 17 66 37 80 45 60 36 350 196 355 196 3 0 24 12
46 26 22 14 84 49 137 78 53 29 113 62 132 73 19 11 71 39 115 63 44 24 82 46
85 49 3 3 25 17 50 29 84 44 195 105 232 129 21 13 40 23 44 23 3 0 36 17 72
39 71 41 126 71 232 129 36 19 73 42 83 50 9 8 17 11 17 7 0 -4 8 -2 18 6 9 8
35 24 57 36 22 11 57 30 78 42 20 12 54 30 75 42 20 11 60 34 87 49 78 44 172
96 268 148 l89 47 -6 45 c-3 25 -7 54 -9 65 -3 11 -8 42 -11 68 -4 27 -9 59
-12 70 -2 12 -6 38 -9 57 -3 19 -7 46 -9 60 -3 14 -8 45 -11 70 -3 25 -8 52
-10 60 -2 8 -6 33 -10 55 -3 22 -8 54 -11 70 -3 17 -7 46 -9 65 -2 19 -4 35
-5 35 -1 0 -3 11 -5 25 -2 14 -6 39 -9 55 -5 27 -12 67 -30 185 -3 19 -7 44
-10 55 -2 11 -7 43 -10 70 -4 28 -14 88 -22 135 -8 47 -17 101 -20 120 -3 19
-10 60 -15 90 -6 30 -12 69 -14 85 -4 31 -40 260 -49 305 -2 14 -10 59 -16
100 -6 41 -14 86 -16 100 -2 14 -9 54 -14 90 -5 36 -12 76 -14 90 -5 27 -15
88 -22 135 -3 17 -9 53 -14 80 -5 28 -12 68 -15 90 -3 22 -14 94 -25 160 -11
66 -22 137 -26 159 -3 21 -7 48 -10 59 -2 12 -6 39 -9 62 -3 22 -15 92 -25
155 -10 63 -21 131 -24 150 -3 19 -8 46 -11 60 -3 14 -7 43 -10 65 -2 22 -7
51 -10 65 -2 13 -7 40 -10 60 -3 20 -7 45 -9 55 -2 11 -9 56 -16 100 -6 44
-13 91 -16 105 -8 42 -35 203 -39 230 -1 14 -8 57 -14 95 -7 39 -14 84 -16
100 -2 17 -6 44 -9 60 -4 17 -9 46 -12 65 -3 19 -12 76 -20 125 -17 100 -22
130 -29 178 -3 17 -7 43 -10 57 -2 14 -7 44 -10 68 -4 24 -15 96 -26 160 -11
64 -22 133 -25 152 -6 42 -32 204 -39 240 -2 14 -7 41 -9 60 -20 142 -30 171
-71 216 -56 62 -165 85 -242 50 -27 -12 -219 -197 -603 -582 -310 -310 -566
-564 -569 -564 -3 0 -28 42 -54 93 -26 50 -71 137 -101 192 -29 55 -85 163
-125 240 -41 77 -93 176 -116 220 -23 44 -70 134 -105 200 -110 210 -172 329
-200 380 -15 28 -60 113 -100 190 -40 77 -81 152 -92 167 -55 79 -185 105
-273 54 -61 -36 -51 -19 -266 -431 -46 -88 -95 -181 -109 -208 -14 -26 -56
-107 -94 -180 -38 -72 -75 -140 -82 -151 -13 -19 -10 -24 -91 134 -7 14 -28
52 -46 85 -36 66 -108 198 -169 314 -22 41 -52 97 -67 125 -16 28 -46 85 -68
126 -22 41 -57 107 -78 145 -21 39 -58 108 -83 155 -24 47 -57 108 -72 135
-15 28 -45 84 -67 125 -92 172 -127 238 -153 285 -15 28 -49 91 -75 140 -26
50 -58 108 -70 130 -12 22 -46 85 -75 140 -88 168 -110 204 -143 231 -51 43
-112 57 -180 42z"/>
</g>
</svg>
